# xmcd CD database file
#
# Track frame offsets:
#	150
#	13750
#	33050
#	43800
#	58425
#	85075
#	100312
#	115505
#	135600
#	151662
#	167670
#	178237
#	190520
#	203737
#	218675
#	233512
#
# Disc length: 3325 seconds
#
# Revision: 1
# Processed by: cddbd v1.4PL0 Copyright (c) Steve Scherf et al.
# Submitted via: CDex 1.50beta10
#
DISCID=c80cfb10
DTITLE=Various Artist - 國語典藏老歌四
DYEAR=1900
DGENRE=國語老歌
TTITLE0=情人的眼淚
TTITLE1=誰來愛我
TTITLE2=愛神的劍
TTITLE3=我在你左右
TTITLE4=秋來伊人
TTITLE5=秦淮河畔
TTITLE6=夜上海
TTITLE7=夜霧下的姑娘
TTITLE8=我要你忘了我
TTITLE9=紅薔葳
TTITLE10=街燈下
TTITLE11=友情的安慰
TTITLE12=四個願望
TTITLE13=你曾經愛過我
TTITLE14=為什麼花兒有煩惱
TTITLE15=總有一天等到你
EXTD=
EXTT0=
EXTT1=
EXTT2=
EXTT3=
EXTT4=
EXTT5=
EXTT6=
EXTT7=
EXTT8=
EXTT9=
EXTT10=
EXTT11=
EXTT12=
EXTT13=
EXTT14=
EXTT15=
PLAYORDER=
